<svg width="120" height="120" viewBox="0 0 120 120" xmlns="http://www.w3.org/2000/svg" fill="#3b82f6">
  <rect x="10" y="10" width="100" height="100" rx="15" fill="#3b82f6"/>
  <path d="M20 30 L20 50 L35 50 M20 70 M20 90 L20 110 M30 110 M30 130 M20 150 M20 170 L20 190 M20 210 M20 230 M20 250 L20 270 M20 290 M20 310 L20 330 M20 350 L20 370 M20 390 L20 410 M20 430 L20 450 L20 470 M20 490 L20 510 M20 530 L20 550 L20 570 L20 590 L20 610 L20 630 L20 650 L20 670 L20 690 L20 710 L20 750 L20 790 L20 830 L20 870 L20 910 L20 950 L20 990 L20 1030 L20 1070 L20 1110" stroke="#ffffff" stroke-width="2" fill="none"/>
</svg>